<svg width="58" height="52" viewBox="0 0 58 52" fill="none" xmlns="http://www.w3.org/2000/svg">
<path d="M47.2058 17.206C46.6077 17.0008 46.0046 16.8107 45.3969 16.6359C45.499 16.2188 45.593 15.8068 45.6764 15.402C47.0458 8.7546 46.1506 3.39935 43.0928 1.63614C40.1611 -0.0541865 35.3665 1.70836 30.5243 5.92254C30.047 6.33861 29.5804 6.76667 29.1248 7.20631C28.8198 6.91396 28.5094 6.62729 28.1938 6.34644C23.1189 1.84051 18.0321 -0.0585771 14.9777 1.70968C12.0486 3.40527 11.1812 8.43959 12.4141 14.7395C12.5367 15.3634 12.6752 15.9841 12.8294 16.601C12.1094 16.8056 11.4146 17.0234 10.7497 17.2552C4.79972 19.3297 1 22.5806 1 25.9527C1 29.4354 5.07917 32.9287 11.2763 35.0468C11.7787 35.2179 12.2853 35.3763 12.7956 35.5221C12.6299 36.1865 12.4827 36.8555 12.3544 37.5281C11.1791 43.7186 12.0969 48.634 15.0181 50.3188C18.0352 52.0588 23.0991 50.2705 28.0298 45.9602C28.4297 45.6098 28.8207 45.2494 29.2025 44.8795C29.6959 45.3555 30.2025 45.8177 30.7216 46.2656C35.498 50.3755 40.2151 52.035 43.1334 50.3456C46.1477 48.6006 47.1274 43.3202 45.8555 36.8959C45.7553 36.3926 45.643 35.8918 45.5186 35.3939C45.8742 35.2885 46.2232 35.1801 46.5635 35.0673C53.006 32.9328 57.1978 29.4819 57.1978 25.9527C57.1978 22.5683 53.2754 19.2954 47.2058 17.206ZM45.8085 32.7886C45.5012 32.8903 45.186 32.9884 44.8646 33.0839C44.1533 30.8322 43.1936 28.4381 42.0189 25.9643C43.1398 23.5496 44.0627 21.186 44.754 18.949C45.3289 19.1154 45.8867 19.2908 46.4245 19.4759C51.625 21.2663 54.7971 23.9131 54.7971 25.9527C54.7971 28.1251 51.3713 30.9453 45.8085 32.7886ZM43.5005 37.3621C44.0629 40.2028 44.143 42.7712 43.7705 44.7792C43.4359 46.5834 42.7629 47.7862 41.9305 48.268C40.1596 49.2932 36.3721 47.9607 32.2875 44.4457C31.8046 44.0294 31.3334 43.5997 30.8744 43.1571C32.458 41.4253 34.0406 39.4121 35.5851 37.176C38.302 36.935 40.8686 36.5407 43.1962 36.0026C43.3083 36.4534 43.4098 36.9066 43.5005 37.3621ZM20.1591 48.0909C18.4288 48.7018 17.0506 48.7194 16.2175 48.2391C14.4449 47.2167 13.708 43.2699 14.7131 37.9759C14.8326 37.3504 14.9695 36.7282 15.1234 36.1102C17.4253 36.6195 19.9733 36.9857 22.6965 37.2065C24.2516 39.3945 25.8798 41.4055 27.5208 43.1665C27.172 43.504 26.8151 43.8328 26.4501 44.1526C24.2696 46.0585 22.0847 47.4108 20.1591 48.0909ZM12.053 32.7752C9.31267 31.8385 7.04961 30.6213 5.49846 29.2929C4.10449 28.0994 3.40092 26.9142 3.40092 25.9527C3.40092 23.9063 6.45163 21.2962 11.5399 19.5222C12.1575 19.3071 12.8037 19.104 13.4744 18.9135C14.1777 21.2009 15.1002 23.5926 16.2134 26.0111C15.0857 28.4653 14.1501 30.8952 13.4399 33.2097C12.9741 33.0762 12.5117 32.9314 12.053 32.7752ZM14.7702 14.2782C13.7141 8.88083 14.4155 4.80934 16.1807 3.78746C18.0606 2.69907 22.218 4.25087 26.5999 8.1417C26.8856 8.39599 27.1667 8.65543 27.4431 8.9199C25.8102 10.6732 24.197 12.6694 22.6557 14.8444C20.0126 15.0894 17.4826 15.4828 15.1566 16.0098C15.0133 15.436 14.8844 14.8585 14.7702 14.2782ZM39.0115 20.2642C38.462 19.3152 37.8923 18.3781 37.3025 17.4536C39.0955 17.6804 40.8135 17.9814 42.4268 18.3493C41.9425 19.9017 41.3388 21.5247 40.6282 23.1887C40.1088 22.2032 39.5698 21.2281 39.0115 20.2642ZM29.1259 10.6357C30.2332 11.8354 31.3422 13.1747 32.433 14.6279C30.2202 14.5234 28.0038 14.523 25.7909 14.6266C26.8828 13.1868 28.0013 11.8492 29.1259 10.6357ZM19.1769 20.2806C18.6256 21.2369 18.0966 22.2058 17.5904 23.1867C16.8915 21.5286 16.2933 19.8982 15.8048 18.3238C17.4082 17.9651 19.1181 17.6718 20.8997 17.4492C20.3034 18.3794 19.729 19.3236 19.1769 20.2806ZM20.9509 34.6269C19.1102 34.4214 17.3746 34.1433 15.7717 33.7942C16.2678 32.1917 16.8792 30.5266 17.5933 28.833C18.1014 29.8147 18.6326 30.7842 19.1864 31.7408C19.7558 32.7243 20.3454 33.6876 20.9509 34.6269ZM29.1922 41.4387C28.0542 40.2111 26.9193 38.8529 25.8109 37.3922C26.887 37.4344 27.984 37.4559 29.0989 37.4559C30.2444 37.4559 31.3767 37.4302 32.4912 37.3806C31.3969 38.8676 30.292 40.2278 29.1922 41.4387ZM40.6509 28.7465C41.4021 30.4588 42.0352 32.1151 42.5379 33.6902C40.9086 34.0621 39.1493 34.3615 37.2957 34.5839C37.8897 33.6422 38.4648 32.6889 39.0209 31.7244C39.5862 30.744 40.1297 29.7511 40.6509 28.7465ZM36.9414 30.5249C36.0901 32.0037 35.191 33.4544 34.2454 34.8747C32.5326 34.996 30.816 35.0563 29.0989 35.0554C27.35 35.0554 25.6489 35.001 24.0108 34.8947C23.0406 33.4777 22.1243 32.0244 21.2639 30.5381C20.4076 29.0596 19.608 27.5491 18.8663 26.01C19.6061 24.4704 20.4035 22.9593 21.2569 21.4797L21.2567 21.4799C22.1097 19.9999 23.0187 18.5529 23.9816 17.1419C25.6528 17.0155 27.3667 16.9496 29.0987 16.9496C30.8386 16.9496 32.5549 17.0161 34.2256 17.1434C35.1788 18.5523 36.082 19.9944 36.9335 21.4669C37.7897 22.9433 38.5977 24.4471 39.3561 25.9759C38.6055 27.5204 37.8 29.0377 36.9414 30.5249ZM41.8938 3.7159C43.7755 4.80122 44.5074 9.17784 43.3251 14.9173C43.2496 15.2834 43.1648 15.6564 43.0726 16.0346C40.7409 15.4964 38.2091 15.0962 35.5584 14.8475C34.0142 12.6485 32.4141 10.6493 30.8079 8.91859C31.2289 8.5128 31.6598 8.11754 32.1004 7.73316C36.2494 4.12267 40.1271 2.69709 41.8938 3.7159ZM29.0989 20.9344C31.8704 20.9344 34.1172 23.1812 34.1172 25.9527C34.1172 28.7241 31.8704 30.971 29.0989 30.971C26.3274 30.971 24.0806 28.7241 24.0806 25.9527C24.0806 23.1812 26.3274 20.9344 29.0989 20.9344Z" stroke="#8CC090" stroke-width="1.5"/>
</svg>
