<svg width="60" height="30" viewBox="0 0 60 30" fill="none" xmlns="http://www.w3.org/2000/svg">
<path fill-rule="evenodd" clip-rule="evenodd" d="M13.125 6.42857C9.0525 6.42857 5.625 10.3457 5.625 15C5.625 19.6543 9.0525 23.5714 13.125 23.5714C15.0938 23.5714 17.3325 22.5257 19.9688 20.4557C21.8813 18.9557 23.8125 17.07 25.8225 15C23.8125 12.93 21.8775 11.0486 19.9725 9.54429C17.3288 7.47429 15.0938 6.42857 13.125 6.42857ZM30 10.6457C27.7875 8.36143 25.485 6.07714 23.1562 4.24714C20.1675 1.89857 16.7812 0 13.125 0C5.9475 0 0 6.79714 0 15C0 23.2029 5.9475 30 13.125 30C16.7812 30 20.1675 28.0971 23.1562 25.7529C25.485 23.9229 27.7875 21.6386 30 19.3543C32.2125 21.6386 34.515 23.9229 36.8438 25.7529C39.8325 28.0971 43.2188 30 46.875 30C54.0525 30 60 23.2029 60 15C60 6.79714 54.0525 0 46.875 0C43.2188 0 39.8325 1.89857 36.8438 4.24714C34.515 6.07714 32.2125 8.36143 30 10.6457ZM34.1775 15C36.1875 17.07 38.1225 18.9514 40.0275 20.4557C42.6675 22.5257 44.9025 23.5714 46.875 23.5714C50.9475 23.5714 54.375 19.6543 54.375 15C54.375 10.3457 50.9475 6.42857 46.875 6.42857C44.9063 6.42857 42.6675 7.47429 40.0312 9.54429C38.1188 11.0443 36.1875 12.93 34.1775 15Z" fill="#8CC090"/>
</svg>
