<svg width="50" height="50" viewBox="0 0 50 50" fill="none" xmlns="http://www.w3.org/2000/svg">
<path d="M42.8572 0H50V7.14286H42.8572V0ZM42.8572 10.7143H50V17.8571H42.8572V10.7143ZM32.1429 0H39.2857V7.14286H32.1429V0ZM32.1429 10.7143H39.2857V17.8571H32.1429V10.7143Z" fill="#8CC090"/>
<path d="M46.4286 24.9999V35.7141H3.57143V7.14272H25V3.57129H3.57143C2.62423 3.57129 1.71582 3.94756 1.04605 4.61734C0.376274 5.28711 0 6.19552 0 7.14272V35.7141C0 36.6613 0.376274 37.5698 1.04605 38.2395C1.71582 38.9093 2.62423 39.2856 3.57143 39.2856H17.8571V46.4284H10.7143V49.9999H39.2857V46.4284H32.1429V39.2856H46.4286C47.3758 39.2856 48.2842 38.9093 48.954 38.2395C49.6237 37.5698 50 36.6613 50 35.7141V24.9999H46.4286ZM28.5714 46.4284H21.4286V39.2856H28.5714V46.4284Z" fill="#8CC090"/>
</svg>
