<svg width="53" height="50" viewBox="0 0 53 50" fill="none" xmlns="http://www.w3.org/2000/svg">
<path d="M9.04937 0L6.40206 2.64355L10.3411 6.58068L12.9846 3.93713L9.04749 0H9.04937ZM43.5979 0L39.6589 3.93713L42.3044 6.58068L46.2415 2.64543L43.5961 0H43.5979ZM26.3227 1.17324C25.7023 1.18076 25.0743 1.21649 24.4425 1.29357C24.4237 1.29357 24.4049 1.28981 24.3861 1.29357C16.76 2.16786 10.6908 8.32926 9.63599 15.9215C8.79367 22.0321 11.3131 27.573 15.5116 31.1417C17.229 32.6073 18.3906 34.6186 18.8019 36.8386V48.1198H23.0888C23.7431 49.2423 24.937 50 26.3227 50C27.7084 50 28.9023 49.2423 29.5566 48.1198H33.8435V40.599H34.0202V38.3654C34.0202 35.609 35.4529 32.8301 37.7806 30.6697C40.8942 27.5524 43.2445 23.1245 43.2445 18.0386C43.2445 8.75042 35.5996 1.08675 26.3227 1.17324V1.17324ZM26.3227 4.93363C33.5897 4.8321 39.4841 10.781 39.4841 18.0386C39.4841 21.9757 37.6603 25.4428 35.1352 27.966L35.1954 28.0262C32.686 30.3401 31.0634 33.4577 30.6077 36.8405H22.3837C21.9701 33.6179 20.5881 30.4986 17.9765 28.2612C14.6542 25.4409 12.6744 21.1917 13.3362 16.3934C14.1579 10.4708 18.9636 5.70827 24.8524 5.05584C25.3386 4.98806 25.8282 4.94788 26.319 4.93551L26.3227 4.93363ZM0 18.0386V21.799H5.64058V18.0386H0ZM47.0048 18.0386V21.799H52.6454V18.0386H47.0048ZM10.3411 33.2569L6.40394 37.1921L9.04937 39.8375L12.9827 35.9004L10.3411 33.2569ZM42.3044 33.2569L39.6608 35.9004L43.5961 39.8375L46.2415 37.1921L42.3044 33.2569ZM22.5623 40.6009H30.0831V44.3613H22.5623V40.6009Z" fill="#8CC090"/>
</svg>
