<svg width="57" height="50" viewBox="0 0 57 50" fill="none" xmlns="http://www.w3.org/2000/svg">
<path d="M39.3241 8.11682L48.1344 16.9271C48.5056 17.2983 48.5056 17.9039 48.1344 18.2751L26.8021 39.6073L17.7378 40.6134C16.5267 40.7501 15.5011 39.7246 15.6378 38.5134L16.6439 29.4491L37.9762 8.11682C38.3473 7.74565 38.9529 7.74565 39.3241 8.11682ZM55.1475 5.88005L50.3809 1.1135C48.8963 -0.371166 46.4837 -0.371166 44.9893 1.1135L41.5316 4.57121C41.1604 4.94237 41.1604 5.54796 41.5316 5.91913L50.3419 14.7294C50.713 15.1006 51.3186 15.1006 51.6898 14.7294L55.1475 11.2717C56.6322 9.7773 56.6322 7.36472 55.1475 5.88005ZM37.5073 33.8054V43.7488H6.25122V12.4927H28.697C29.0096 12.4927 29.3026 12.3657 29.5273 12.1508L33.4343 8.2438C34.1766 7.50147 33.6492 6.24145 32.604 6.24145H4.68842C2.10002 6.24145 0 8.34147 0 10.9299V45.3116C0 47.9 2.10002 50 4.68842 50H39.0701C41.6585 50 43.7585 47.9 43.7585 45.3116V29.8984C43.7585 28.8533 42.4985 28.3356 41.7562 29.0682L37.8492 32.9752C37.6343 33.1998 37.5073 33.4929 37.5073 33.8054Z" fill="#8CC090"/>
</svg>
